<svg width="150" height="150" viewBox="0 0 150 150" fill="none" xmlns="http://www.w3.org/2000/svg">
<rect width="150" height="150" rx="10" fill="#43115B"/>
<rect width="150" height="150" rx="10" fill="#43115B"/>
<path d="M86.3171 78.126L105.211 98.9C107.342 101.281 108.407 103.287 108.407 104.916C108.407 106.545 107.185 108.457 104.741 110.65C102.36 112.843 100.323 113.94 98.6311 113.94C97.0018 113.94 95.0904 112.687 92.8971 110.18L75.0371 89.688L57.1771 110.18C54.9211 112.687 52.9784 113.94 51.3491 113.94C49.7824 113.94 47.7458 112.843 45.2391 110.65C42.7951 108.394 41.5731 106.483 41.5731 104.916C41.5731 103.349 42.6698 101.344 44.8631 98.9L63.7571 78.126L44.8631 57.352C42.6698 55.0333 41.5731 53.0593 41.5731 51.43C41.5731 49.8007 42.7951 47.8893 45.2391 45.696C47.6831 43.44 49.7198 42.312 51.3491 42.312C53.0411 42.312 54.9838 43.5653 57.1771 46.072L75.0371 66.564L92.8971 46.072C95.1531 43.5653 97.0644 42.312 98.6311 42.312C100.26 42.312 102.297 43.4087 104.741 45.602C107.185 47.7953 108.407 49.738 108.407 51.43C108.407 53.122 107.342 55.096 105.211 57.352L86.3171 78.126Z" fill="#48D2FE"/>
</svg>
