<svg width="150" height="150" viewBox="0 0 150 150" fill="none" xmlns="http://www.w3.org/2000/svg">
<rect width="150" height="150" rx="10" fill="#43115B"/>
<rect width="150" height="150" rx="10" fill="#43115B"/>
<path d="M74.1526 40.252C83.4273 40.252 91.48 43.6047 98.3106 50.31C105.141 57.0153 108.557 65.35 108.557 75.314C108.557 85.2153 105.298 93.6753 98.7806 100.694C92.2633 107.65 84.242 111.128 74.7166 111.128C65.1913 111.128 57.076 107.681 50.3706 100.788C43.728 93.8947 40.4066 85.6853 40.4066 76.16C40.4066 70.9587 41.3466 66.102 43.2266 61.59C45.1066 57.0153 47.6133 53.1927 50.7466 50.122C53.88 47.0513 57.4833 44.6387 61.5566 42.884C65.63 41.1293 69.8286 40.252 74.1526 40.252ZM57.0446 75.69C57.0446 81.2673 58.8306 85.8107 62.4026 89.32C66.0373 92.7667 70.0793 94.49 74.5286 94.49C78.978 94.49 82.9886 92.798 86.5606 89.414C90.1326 86.03 91.9186 81.4867 91.9186 75.784C91.9186 70.0813 90.1013 65.5067 86.4666 62.06C82.8946 58.6133 78.884 56.89 74.4346 56.89C69.9853 56.89 65.9746 58.6447 62.4026 62.154C58.8306 65.6007 57.0446 70.1127 57.0446 75.69Z" fill="#E2BE00"/>
</svg>
